<svg width="97" height="68" viewBox="0 0 97 68" fill="none" xmlns="http://www.w3.org/2000/svg">
<path d="M96.5618 30.9917H76.5294L59.0544 68L37.7435 11.585L23.252 42.2747H0.662354V37.7615H20.6947L38.1697 0.753296L59.4807 57.1683L73.9721 26.4785H96.5618V30.9917Z" fill="#4285F4"/>
<path d="M76.5294 30.9917L59.0544 68L37.7435 11.585L23.252 42.2747H0.662354V37.7615H20.6947L38.1697 0.753296L59.4807 57.1683L73.9721 26.4785" fill="#0F9D58"/>
<path d="M59.0545 68L37.7435 11.585L23.252 42.2747H0.662354V37.7615H20.6947L38.1697 0.753296L59.4807 57.1683" fill="#F4B400"/>
<path d="M37.7435 11.585L23.252 42.2747H0.662354V37.7615H20.6947L38.1697 0.753296" fill="#DB4437"/>
</svg>
