<svg width="548" height="362" viewBox="0 0 548 362" fill="none" xmlns="http://www.w3.org/2000/svg">
<g opacity="0.5">
<path d="M548 162.67H433.529L333.671 361.759L211.893 58.2698L129.084 223.368H0V199.089H114.471L214.329 0L336.107 303.489L418.916 138.391H548V162.67Z" fill="#4285F4"/>
<path d="M433.529 162.67L333.671 361.759L211.893 58.2698L129.084 223.368H0V199.089H114.471L214.329 0L336.107 303.489L418.916 138.391" fill="#0F9D58"/>
<path d="M333.671 361.759L211.893 58.2698L129.084 223.368H0V199.089H114.471L214.329 0L336.107 303.489" fill="#F4B400"/>
<path d="M211.893 58.2698L129.084 223.368H0V199.089H114.471L214.329 0" fill="#DB4437"/>
</g>
</svg>
